<svg width="54" height="54" viewBox="0 0 54 54" fill="none" xmlns="http://www.w3.org/2000/svg">
<path d="M25.2825 40.84C25.2825 41.1867 24.4692 41.4667 22.8425 41.68C21.2158 41.8933 19.5892 42 17.9625 42C16.3358 42 15.2958 41.9067 14.8425 41.72C14.3892 41.5333 14.1625 41.24 14.1625 40.84V15.12C14.1625 13.84 18.0025 13.2 25.6825 13.2C30.3225 13.2 33.3892 13.52 34.8825 14.16C36.6958 14.9067 37.9225 15.92 38.5625 17.2C39.4158 18.8533 39.8425 20.9733 39.8425 23.56C39.8425 27.1067 39.2292 29.68 38.0025 31.28C37.1225 32.4533 36.2425 33.2133 35.3625 33.56C34.4825 33.9067 33.7492 34.16 33.1625 34.32C32.6025 34.4533 31.8958 34.56 31.0425 34.64C29.8692 34.7467 28.2692 34.8 26.2425 34.8L25.2825 34.76V40.84ZM25.3225 28.12H26.2825C26.7892 28.12 27.1892 28.0533 27.4825 27.92C27.7758 27.76 28.0292 27.36 28.2425 26.72C28.4825 26.0533 28.6025 25.1333 28.6025 23.96C28.6025 22.76 28.4692 21.8533 28.2025 21.24C27.9625 20.6 27.7092 20.2267 27.4425 20.12C27.2025 19.9867 26.9092 19.92 26.5625 19.92H25.3225V28.12Z" fill="#FAFAFA"/>
<rect x="2.5" y="2.5" width="49" height="49" stroke="#FAFAFA" stroke-width="5"/>
</svg>
